<svg viewBox="0 0 24 24" xmlns="http://www.w3.org/2000/svg"><circle style="fill: rgb(255, 152, 0);" cx="12.049" cy="11.951" r="12.049"/><path d="M 10.998 16.142 L 9.219 17.92 C 8.502 18.604 7.374 18.604 6.657 17.92 L 6.078 17.341 C 5.371 16.633 5.371 15.487 6.078 14.78 L 9.847 11.011 C 10.554 10.304 11.701 10.304 12.408 11.011 L 12.989 11.59 C 13.343 11.945 13.949 11.783 14.079 11.298 C 14.139 11.073 14.075 10.834 13.91 10.669 L 13.33 10.089 C 12.114 8.875 10.145 8.875 8.93 10.089 L 5.161 13.858 C 3.946 15.073 3.946 17.043 5.161 18.258 L 5.74 18.837 C 6.955 20.053 8.926 20.053 10.14 18.837 L 11.918 17.059 C 12.272 16.706 12.111 16.102 11.627 15.972 C 11.403 15.912 11.164 15.976 11 16.14 Z" style=""/><path d="M 18.84 5.737 L 18.26 5.158 C 17.043 3.947 15.077 3.947 13.861 5.158 L 11.973 7.042 C 11.625 7.402 11.798 8.003 12.283 8.124 C 12.501 8.178 12.731 8.117 12.892 7.961 L 14.776 6.077 C 15.484 5.371 16.63 5.371 17.337 6.077 L 17.918 6.657 C 18.626 7.364 18.626 8.511 17.918 9.219 L 14.149 12.988 C 13.81 13.328 13.349 13.52 12.868 13.518 L 12.868 13.518 C 12.388 13.52 11.927 13.329 11.588 12.988 C 11.246 12.623 10.637 12.765 10.492 13.244 C 10.42 13.48 10.489 13.737 10.669 13.906 C 11.251 14.491 12.043 14.818 12.868 14.815 L 12.868 14.815 C 13.693 14.818 14.485 14.491 15.067 13.906 L 18.836 10.137 C 20.052 8.922 20.052 6.951 18.836 5.737 Z" style=""/></svg>
